<?xml version="1.0" encoding="UTF-8"?>
<svg version="1.1" xmlns="http://www.w3.org/2000/svg" width="512" height="512">
<path d="M0 0 C1.13456635 -0.00511093 2.26913269 -0.01022186 3.43807983 -0.01548767 C7.1672705 -0.0293226 10.89627509 -0.02843146 14.62548828 -0.02612305 C17.23186308 -0.0300133 19.83823724 -0.03434864 22.4446106 -0.03910828 C27.89993931 -0.04729916 33.35521618 -0.04642811 38.81054688 -0.04101562 C45.09139095 -0.03497935 51.37201081 -0.04728602 57.65281665 -0.06858569 C63.72527626 -0.08841167 69.79763198 -0.09136531 75.870121 -0.08785057 C78.43999889 -0.08836216 81.00988049 -0.09356933 83.57973862 -0.10366249 C87.18093633 -0.11607141 90.78162228 -0.10920803 94.3828125 -0.09765625 C95.43251221 -0.10529999 96.48221191 -0.11294373 97.5637207 -0.12081909 C110.89084447 -0.02686731 122.50340009 4.07780397 132.39892578 13.12231445 C140.04613045 21.68656196 143.62492154 31.39617556 143.61132812 42.72583008 C143.61804535 43.54156494 143.62476257 44.3572998 143.63168335 45.19775391 C143.65059072 47.87970171 143.65458478 50.56139798 143.65673828 53.2434082 C143.66317448 55.12561136 143.66990344 57.00781353 143.6769104 58.89001465 C143.68886742 62.83400791 143.69259317 66.77791373 143.69140625 70.72192383 C143.6912039 75.73696814 143.71842599 80.75144044 143.75295067 85.76634979 C143.7753718 89.6563974 143.77923906 93.54631107 143.7781868 97.43641663 C143.78052302 99.2829026 143.78923277 101.12939342 143.80485153 102.97581482 C143.90106025 115.53140227 143.49201455 127.95560104 137.32080078 139.2746582 C148.76069333 138.15908988 148.76069333 138.15908988 158.32080078 132.2746582 C162.91169806 126.28769859 163.47100518 120.65551341 163.48193359 113.34765625 C163.4868985 112.55186661 163.4918634 111.75607697 163.49697876 110.93617249 C163.51158078 108.30289844 163.51840295 105.66968485 163.52392578 103.03637695 C163.52675316 102.13203226 163.52958054 101.22768757 163.53249359 100.29593849 C163.54748693 95.50002373 163.55671246 90.704139 163.56103516 85.90820312 C163.56648658 80.99071244 163.59044308 76.07350333 163.61900711 71.15610027 C163.63779365 67.345843 163.64284776 63.53565097 163.64437103 59.72535133 C163.64736761 57.91515393 163.65529264 56.10495682 163.66855621 54.29480553 C163.7438986 43.21140264 163.0071467 33.06105044 160.32080078 22.2746582 C163.94569732 22.16197138 167.56966845 22.08687126 171.19580078 22.0246582 C172.20900391 21.99114258 173.22220703 21.95762695 174.26611328 21.9230957 C182.86432104 21.81286227 189.42415593 23.65191648 196.57080078 28.4621582 C204.16087731 36.22473647 207.60560749 43.85542657 207.72705078 54.7512207 C207.73845093 55.55772064 207.74985107 56.36422058 207.76159668 57.19515991 C207.78041963 58.89787619 207.79353391 60.60066405 207.80126953 62.3034668 C207.82059292 64.87202833 207.88265398 67.43732143 207.94580078 70.00512695 C208.08751155 80.98151848 207.06343869 90.07320128 199.23681641 98.52514648 C195.60411949 101.96065573 191.83029146 104.11599576 187.32080078 106.2746582 C187.29501953 107.57918945 187.26923828 108.8837207 187.24267578 110.2277832 C186.80874096 125.48271064 185.00304925 137.56734548 174.32080078 149.2746582 C166.75600249 156.28564727 157.5465156 161.1887077 147.01635742 161.31396484 C144.80686857 161.15336142 142.59787378 160.98582779 140.3894043 160.81176758 C131.92797047 160.25986973 124.26036102 160.11820346 117.40991211 165.72026062 C112.74493339 169.93151237 108.69555053 174.61351383 104.63720703 179.3996582 C93.55557111 192.38784617 77.90237276 199.96821379 61.32080078 203.2746582 C60.20705078 203.5015332 59.09330078 203.7284082 57.94580078 203.9621582 C41.89907342 205.34549677 26.83524436 203.52195219 12.32080078 196.2746582 C11.34755859 195.79383789 10.37431641 195.31301758 9.37158203 194.81762695 C1.60021332 190.64242102 -4.59949149 185.22000126 -10.83544922 179.08325195 C-12.84940267 177.10770016 -14.88918668 175.16077233 -16.92919922 173.2121582 C-34.93997459 155.8232662 -48.67487836 136.83391604 -49.19677734 110.85180664 C-49.23753728 107.36204758 -49.22836293 103.87392106 -49.21044922 100.3840332 C-49.21315206 98.50368042 -49.21704102 96.62332902 -49.2220459 94.74298096 C-49.22789794 90.82990013 -49.21951428 86.91718791 -49.20068359 83.00415039 C-49.177833 78.01578508 -49.19108309 73.02827805 -49.21497345 68.0399437 C-49.22949434 64.167192 -49.22479781 60.29464068 -49.21446228 56.42188263 C-49.21181563 54.58327377 -49.21499116 52.74464605 -49.22438049 50.90605927 C-49.28265667 36.30066681 -47.61015555 24.73044641 -37.67919922 13.2746582 C-26.50431966 2.78313459 -14.98215404 -0.03522383 0 0 Z M31.32080078 136.2746582 C27.4379177 141.66755137 26.04893768 146.60355607 26.32080078 153.2746582 C27.52470177 158.93891368 30.13603749 164.07211163 34.99267578 167.4309082 C42.52698077 171.93861204 49.42384758 171.52136015 58.00830078 171.5871582 C59.2503125 171.61616211 60.49232422 171.64516602 61.77197266 171.67504883 C68.8568028 171.72385794 75.4392449 171.63934149 81.32080078 167.2746582 C82.05991699 166.24542236 82.7990332 165.21618652 83.56054688 164.15576172 C86.32080078 161.2746582 86.32080078 161.2746582 90.06616211 160.66040039 C91.51247412 160.68686608 92.95845592 160.74218262 94.40283203 160.8215332 C95.99070963 160.84209602 97.57860132 160.86159373 99.16650391 160.88012695 C101.64916952 160.94434439 104.12968541 161.0245093 106.61108398 161.12670898 C116.32485087 161.76328368 116.32485087 161.76328368 125.06445312 158.35083008 C129.53103019 152.98800251 132.2494708 146.5023532 135.32080078 140.2746582 C134.71802811 140.2754538 134.11525543 140.27624939 133.49421692 140.27706909 C127.2157575 140.27950838 120.93853399 140.24030643 114.66040039 140.17700195 C112.3180109 140.15884264 109.97551424 140.15127331 107.63305664 140.15454102 C104.26380514 140.15739813 100.89677582 140.12208019 97.52783203 140.0793457 C96.48182327 140.08843964 95.43581451 140.09753357 94.35810852 140.10690308 C87.19990078 139.96406899 87.19990078 139.96406899 84.65473938 137.96809387 C83.36621094 136.37109375 83.36621094 136.37109375 81.32080078 133.2746582 C74.49892957 128.25011542 66.36501832 128.70482106 58.25830078 128.8371582 C57.03046875 128.83006836 55.80263672 128.82297852 54.53759766 128.81567383 C45.59856004 128.87825191 37.94620493 129.64925406 31.32080078 136.2746582 Z " fill="#000000" transform="translate(208.67919921875,105.725341796875)"/>
<path d="M0 0 C21.35191681 3.85741649 44.47953748 9.16468484 61 24 C62.23169922 25.09248047 62.23169922 25.09248047 63.48828125 26.20703125 C79.66633903 41.40311284 84.41974916 60.11522583 88.3125 81.125 C88.69506723 83.14883586 89.07846362 85.17251514 89.46264648 87.19604492 C90.25406534 91.37386543 91.0381143 95.55298974 91.81835938 99.73291016 C92.77590941 104.84205562 93.76874621 109.94342378 94.77851868 115.04248047 C95.53768023 118.88234184 96.28367408 122.72469536 97.0274353 126.56756592 C97.37837341 128.36791263 97.73418523 130.16731764 98.09536743 131.96563721 C102.17393066 152.34088473 103.26515955 170.56162069 92 189 C83.78438954 200.21038464 71.69935706 208.18518545 58 211 C55.94301392 211.089286 53.88332409 211.12197602 51.82440186 211.12025452 C50.55678009 211.12162918 49.28915833 211.12300385 47.98312378 211.12442017 C46.58087135 211.12088125 45.17861915 211.11724644 43.77636719 211.11352539 C42.29796348 211.11324328 40.81955963 211.11340172 39.34115601 211.1139679 C35.32911186 211.11425494 31.31709759 211.10837318 27.30506039 211.10139394 C23.11167998 211.09514498 18.9182989 211.09455538 14.72491455 211.09336853 C6.78478129 211.09025977 -1.15533822 211.0820525 -9.09546542 211.07201904 C-19.82541247 211.05875441 -30.55536328 211.05335432 -41.28531647 211.04751682 C-58.19022129 211.03811232 -75.09509707 211.01819035 -92 211 C-92 172.06 -92 133.12 -92 93 C-56.75 92.75 -56.75 92.75 -45.69042969 92.70214844 C-42.36950855 92.66885845 -42.36950855 92.66885845 -39.04864502 92.63043213 C-37.58922552 92.61598243 -36.12971796 92.60905291 -34.67022705 92.60845947 C-22.39526398 92.59494696 -11.33541608 91.52148248 -1.62109375 83.26953125 C0 82 0 82 3 81 C4.06441643 79.17966048 4.06441643 79.17966048 5 77 C5.97495491 75.47646322 6.95446068 73.955833 7.9375 72.4375 C16.57768205 58.00902973 14.59401827 42.68510128 11 27 C8.51714068 17.50536205 4.27506426 8.79030067 0 0 Z " fill="#000000" transform="translate(358,301)"/>
<path d="M0 0 C-0.51949219 0.93457031 -1.03898437 1.86914062 -1.57421875 2.83203125 C-10.87850075 20.14107709 -17.88473706 42.11764555 -12.375 61.6875 C-10.67519746 66.76253768 -8.4621201 70.91158569 -5.26953125 75.1953125 C-4 77 -4 77 -3 80 C-1.68747118 80.70674629 -0.34721283 81.36184656 1 82 C1.99 82.78375 2.98 83.5675 4 84.375 C13.90253192 91.43424031 25.25501859 91.60463122 36.921875 91.609375 C38.33937391 91.62340964 39.75685656 91.63919657 41.17431641 91.65673828 C46.36604156 91.70894181 51.558061 91.72753598 56.75 91.75 C68.3825 91.8325 80.015 91.915 92 92 C92 130.94 92 169.88 92 210 C54.86747114 210.16121214 54.86747114 210.16121214 39.265625 210.1953125 C28.5077346 210.21901493 17.74996984 210.24682665 6.9921875 210.30175781 C-0.84387428 210.34175091 -8.67983378 210.36746242 -16.51599479 210.37635398 C-20.66140903 210.38154772 -24.80653081 210.39366876 -28.95185089 210.42292023 C-32.86217212 210.45028706 -36.7720834 210.45840262 -40.6824913 210.45243073 C-42.10942445 210.45352154 -43.53637284 210.4613481 -44.9632225 210.4768219 C-61.49371438 210.64713498 -74.75866271 205.53965268 -86.8984375 194.2578125 C-98.46011963 181.83652575 -101.73042113 166.84365148 -101.15438461 150.42157745 C-100.67823433 142.95299132 -99.10004425 135.60656008 -97.67578125 128.2734375 C-97.32798673 126.42814535 -96.98126345 124.58265101 -96.63554382 122.73696899 C-95.91299672 118.89791618 -95.17998624 115.06106737 -94.4387207 111.22558594 C-93.49761854 106.35333363 -92.57963026 101.47707854 -91.66907978 96.59903526 C-90.95726484 92.79669099 -90.23489031 88.9964114 -89.50929832 85.19667435 C-89.16731132 83.40098184 -88.82804973 81.60476771 -88.49178505 79.80799484 C-83.5868951 53.71111122 -74.92856595 32.09362547 -52.3984375 16.16015625 C-43.82634306 10.76422352 -34.64437215 7.8341315 -25 5 C-24.0394873 4.71672852 -23.07897461 4.43345703 -22.08935547 4.14160156 C-19.08480655 3.26545632 -16.07551051 2.40905956 -13.0625 1.5625 C-12.10875488 1.29107178 -11.15500977 1.01964355 -10.17236328 0.73999023 C-8.8360083 0.37562866 -8.8360083 0.37562866 -7.47265625 0.00390625 C-6.68125244 -0.21450928 -5.88984863 -0.4329248 -5.07446289 -0.65795898 C-3 -1 -3 -1 0 0 Z M-14.4375 130.8125 C-15.31325348 134.218208 -14.89136765 136.61280292 -14 140 C-11.24005764 143.43127969 -9.31636859 145.28037399 -5 146 C-0.47225253 146.22239438 4.0566288 146.22818658 8.58911133 146.24023438 C10.79481984 146.24992234 12.99958868 146.28096133 15.20507812 146.3125 C16.62239035 146.31903292 18.03970918 146.32428226 19.45703125 146.328125 C20.73553955 146.3374707 22.01404785 146.34681641 23.33129883 146.35644531 C28.20348836 145.88307094 32.17339072 144.59091776 35.9375 141.3125 C37.51705535 137.87464424 37.79106919 134.65778781 37 131 C34.46546343 127.78045355 32.88702695 126.29567565 29 125 C26.33909263 124.86732977 23.70516876 124.78782974 21.04296875 124.76171875 C19.87209465 124.74961113 19.87209465 124.74961113 18.67756653 124.73725891 C17.02587086 124.7234368 15.37414685 124.71270627 13.72241211 124.70483398 C11.20696365 124.68763309 8.69283423 124.64373393 6.17773438 124.59960938 C4.57032213 124.58948058 2.96289875 124.58096506 1.35546875 124.57421875 C0.60839157 124.55671066 -0.13868561 124.53920258 -0.90840149 124.52116394 C-6.73903897 124.54516853 -10.77320182 126.19229794 -14.4375 130.8125 Z " fill="#000000" transform="translate(154,302)"/>
<path d="M0 0 C1.13745667 -0.00700928 2.27491333 -0.01401855 3.44683838 -0.02124023 C7.20577459 -0.03883649 10.96395652 -0.02718372 14.72290039 -0.01367188 C17.34640141 -0.01636797 19.96990145 -0.02025138 22.59339905 -0.02526855 C28.09701649 -0.0325407 33.60041913 -0.02297856 39.10400391 -0.00390625 C45.42967018 0.01776455 51.75481867 0.01088153 58.08047193 -0.01121187 C64.19833987 -0.03171046 70.31598213 -0.02933466 76.43387032 -0.01768494 C79.01997514 -0.0150334 81.60609333 -0.01823143 84.19218254 -0.02760315 C100.86838533 -0.07473901 115.89722775 0.28746512 130.94555664 8.26757812 C131.61087402 8.61191895 132.27619141 8.95625977 132.96166992 9.31103516 C138.75725032 12.40510685 143.80159743 16.05524568 148.63305664 20.51757812 C149.48512695 21.30132813 150.33719727 22.08507812 151.21508789 22.89257812 C168.35512904 39.33879452 180.58710421 63.67660987 181.79003906 87.64550781 C181.82828223 90.8345494 181.80882777 94.01626044 181.75805664 97.20507812 C181.7490332 98.30013672 181.74000977 99.39519531 181.73071289 100.5234375 C181.70743818 103.18839167 181.67474799 105.85285946 181.63305664 108.51757812 C177.17315491 108.6119413 172.7187643 108.60458751 168.25805664 108.58007812 C167.00637695 108.60779297 165.75469727 108.63550781 164.46508789 108.6640625 C157.53533046 108.57335887 153.38900053 108.03505959 148.21118164 103.22460938 C147.42759277 102.41145264 146.64400391 101.5982959 145.83666992 100.76049805 C142.82201713 97.69207181 139.61733205 95.94887816 135.75805664 94.14257812 C135.1405957 93.82675781 134.52313477 93.5109375 133.88696289 93.18554688 C124.04021078 88.39147161 113.91580427 87.06942854 103.07836914 87.12939453 C101.88644958 87.12413757 100.69453003 87.11888062 99.4664917 87.11346436 C96.23496713 87.10261647 93.00381877 87.10502697 89.77230072 87.11460161 C86.36666666 87.12227606 82.96105511 87.11513126 79.55541992 87.11044312 C73.83971748 87.10500796 68.1241319 87.1121179 62.40844727 87.12646484 C55.83046921 87.14278711 49.25277027 87.137497 42.67479897 87.12098563 C36.99456227 87.10730644 31.31440887 87.1054823 25.634161 87.11330163 C22.25583711 87.11794305 18.87764376 87.11870176 15.49932861 87.10869217 C11.72861227 87.10101941 7.95842164 87.11276397 4.18774414 87.12939453 C3.09024841 87.12332184 1.99275269 87.11724915 0.86199951 87.11099243 C-9.57050851 87.19564734 -19.19401486 89.38685269 -28.49194336 94.14257812 C-29.11713867 94.43519531 -29.74233398 94.7278125 -30.38647461 95.02929688 C-34.71023152 97.19556048 -37.58576977 99.73855132 -40.94506836 103.22460938 C-47.08404805 108.92802558 -52.92321889 108.7587368 -60.99194336 108.58007812 C-62.28229492 108.58716797 -63.57264648 108.59425781 -64.90209961 108.6015625 C-68.05933186 108.61325595 -71.21056081 108.58436127 -74.36694336 108.51757812 C-75.25983323 84.74953667 -70.90748548 65.65595437 -54.36694336 47.51757812 C-53.78041992 46.86144531 -53.19389648 46.2053125 -52.58959961 45.52929688 C-47.29960485 39.9156789 -41.07583759 35.06964675 -33.94116211 32.08398438 C-27.69771691 29.6758362 -27.69771691 29.6758362 -23.56518555 24.74316406 C-22.62562421 21.30033094 -22.24850261 17.90469951 -21.95678711 14.35742188 C-21.11769731 8.89500285 -19.03986263 5.98806343 -14.93260193 2.37780762 C-10.35660307 -0.54870988 -5.25762063 -0.03987498 0 0 Z " fill="#000000" transform="translate(202.366943359375,-0.517578125)"/>
<path d="M0 0 C4.36778552 0.61116402 7.62883592 2.2392963 11.5 4.3125 C18.1279396 7.74255731 24.75254659 10.15097022 32 12 C32.81984375 12.22558594 33.6396875 12.45117188 34.484375 12.68359375 C57.26249279 17.94287254 83.41059042 13.05010965 103.1953125 0.91796875 C105 0 105 0 108 0 C108.85096168 15.72703255 104.6426293 29.79347655 94.3125 41.8125 C84.2493416 52.25171066 71.74073554 58.13401667 57.24609375 59.203125 C40.61936079 59.48062263 26.49136299 54.28120943 14.4765625 42.69921875 C4.95703182 32.32383122 -0.23458747 19.23617259 -0.0625 5.125 C-0.05347656 4.15820312 -0.04445312 3.19140625 -0.03515625 2.1953125 C-0.02355469 1.47085937 -0.01195312 0.74640625 0 0 Z " fill="#000000" transform="translate(202,315)"/>
<path d="M0 0 C1.06992188 0.00902344 2.13984375 0.01804687 3.2421875 0.02734375 C5.87003647 0.05080669 8.49736001 0.08538879 11.125 0.125 C10.91437424 1.01063126 10.70374847 1.89626251 10.48674011 2.80873108 C8.30511728 12.67889039 7.65490522 22.03592071 7.61328125 32.12109375 C7.59638172 33.69150647 7.57822469 35.2619061 7.55888367 36.83229065 C7.51194859 40.91077578 7.48177775 44.9892079 7.45544434 49.06787109 C7.42534902 53.25173421 7.37892061 57.43541525 7.33398438 61.61914062 C7.24859656 69.78766972 7.18096933 77.95621653 7.125 86.125 C4.58314036 86.16915047 2.04206053 86.20124206 -0.5 86.2265625 C-1.21285156 86.24017822 -1.92570312 86.25379395 -2.66015625 86.26782227 C-11.57844295 86.33430032 -19.14433536 83.52795181 -26.08984375 77.89453125 C-32.54083759 71.50000126 -36.0398349 64.1807455 -36.20419312 55.06048584 C-36.20641876 54.31349426 -36.20864441 53.56650269 -36.2109375 52.796875 C-36.2175943 52.00782776 -36.2242511 51.21878052 -36.23110962 50.40582275 C-36.24119545 48.74176346 -36.2459279 47.07766405 -36.24560547 45.41357422 C-36.24996345 42.89611371 -36.28628168 40.38043048 -36.32421875 37.86328125 C-36.40308271 26.66938973 -35.58077125 17.22473993 -27.578125 8.65625 C-19.19163671 1.11610456 -10.97049577 -0.17563602 0 0 Z " fill="#000000" transform="translate(131.875,127.875)"/>
<path d="M0 0 C0.01401855 1.28293945 0.01401855 1.28293945 0.02832031 2.59179688 C0.37944923 28.16224395 1.91728264 49.89111974 19.43359375 70.046875 C21 72 21 72 22 75 C17.68773255 75.11719343 13.37588066 75.18758416 9.0625 75.25 C7.85013672 75.28351563 6.63777344 75.31703125 5.38867188 75.3515625 C-2.67105711 75.43893084 -9.78916408 75.00279175 -15.87280273 69.21972656 C-22.655534 61.76496622 -22.58181691 55.09739373 -22.37890625 45.3984375 C-21.88602339 35.47364934 -12.90988722 0 0 0 Z " fill="#000000" transform="translate(182,299)"/>
<path d="M0 0 C12.60294014 9.99489952 19.35793779 25.31797869 22 41 C22.31969517 44.19366267 22.41408225 47.35426883 22.4375 50.5625 C22.47037109 51.36107422 22.50324219 52.15964844 22.53710938 52.98242188 C22.59893584 59.87888298 20.26697684 64.53906023 15.55664062 69.52905273 C10.42569562 74.15109518 5.2512197 75.25953543 -1.4921875 75.1953125 C-2.69101562 75.18886719 -3.88984375 75.18242187 -5.125 75.17578125 C-6.3625 75.15902344 -7.6 75.14226562 -8.875 75.125 C-10.76605469 75.11146484 -10.76605469 75.11146484 -12.6953125 75.09765625 C-15.7970704 75.07415808 -18.89843652 75.04130334 -22 75 C-20.32116332 71.48166126 -18.25920606 68.73219618 -15.8125 65.6875 C-3.93289671 50.24738378 -0.64307295 33.37379064 -0.3125 14.125 C-0.27920401 12.74345991 -0.24470386 11.3619483 -0.20898438 9.98046875 C-0.12756065 6.65372805 -0.05807388 3.327216 0 0 Z " fill="#000000" transform="translate(330,299)"/>
</svg>
